Patient4_TMGait_0pt5_02_right_18_EMG.mot
version=1
nRows=33
nColumns=33
inDegrees=no
endheader
time	1LAddLong	2LGlutMax	3LGlutMed	4LIliopsoas	5LSemiMemb	6LBicFemLong	7LRecFem	8LVastMed	9LVastLat	10LGasMed	11LTibAnt	12lTibPost	13LPeroneusLong	14LSol	15LExtDigLong	16LFlexDigLong	17RAddLong	18RGlutMax	19RGlutMed	20RIliopsoas	21RSemiMemb	22RBicFemLong	23RRecFem	24RVastMed	25RVastLat	26RGasMed	27RTibAnt	28RTibPost	29RPeroneusLong	30RSol	31RExtDigLong	32RFlexDigLong
23.847	0.011292	0.21606	0.008087	0.005646	-0.001526	-0.020599	0.029297	0.00061	0.012512	0.06012	0.027313	-0.009766	-0.056915	0.009155	0.28595	-0.00885	-0.020142	0.61325	-0.47318	-0.14465	0.04303	0.31494	-0.04303	0.080261	0.09201	-0.040283	0.094757	-0.014954	-0.11215	0.088196	-0.002289	0.000458
23.848	0.011902	0.26108	0.004272	0.025024	-0.001831	-0.023499	-0.14862	-0.008545	0.041809	0.028687	0.085602	-0.007019	-0.034485	0.053406	0.10651	-0.014954	-0.037231	0.56412	-0.56686	-0.22675	0.028687	0.21561	-0.084839	0.040894	0.1506	-0.035706	0.15518	-0.00946	-0.52841	-0.003204	-0.00061	0.001984
23.849	0.017242	0.2803	-0.007172	0.068817	-0.002594	-0.027618	-0.38559	-0.018158	0.039673	0.056152	0.15137	-0.009155	-0.032349	0.055542	-0.032196	-0.011749	-0.040436	0.5986	-0.63324	-0.21027	0.002289	0.1532	-0.027008	0.009003	0.14801	-0.005798	0.24368	0.009003	-0.25711	-0.10864	0.00061	0.001526
23.85	0.009308	0.29327	0.012665	0.094147	0.001678	-0.018005	-0.44708	-0.036316	0.027161	0.024567	0.099487	-0.006714	-0.022583	0.034637	-0.15671	-0.023956	-0.004883	0.57632	-0.24063	-0.10513	0.025482	0.15121	-0.004425	0.037994	0.11902	0.020599	0.23422	-0.005493	-0.037384	-0.1474	-0.003052	0.007782
23.851	0.008545	0.30212	0.01236	0.06958	0.000763	-0.010681	-0.36606	-0.019226	0.03067	0.091248	0.051727	-0.00412	-0.035706	0.08194	-0.20844	-0.011444	0.012665	0.57312	0.18188	0.036163	-0.028839	0.068817	0.010071	-0.013733	0.076904	0.025482	0.16403	-0.050964	0.90225	-0.14358	-0.001831	0.00061
23.852	0.007782	0.26535	-0.007782	-0.010376	0.002289	-0.03891	-0.38437	0.002899	0.036774	0.046539	0.10147	-0.011749	-0.041351	0.15778	-0.042877	0.011902	0.040741	0.51178	0.32837	0.2092	0.031281	-0.061188	-0.06134	-0.11963	0.022736	0.055847	0.051117	-0.33569	0.030365	-0.1683	-0.000763	0.014801
23.853	0.011749	0.20111	-0.02182	-0.027618	0.001984	-0.018616	-0.42389	-0.001373	0.014954	0.03479	0.11169	-0.002899	-0.039673	0.1651	0.24078	-0.004578	0.044861	0.29739	0.18539	0.36407	0.042114	-0.059509	-0.062103	-0.1355	0.054016	0.018616	0.01358	0.1062	-0.071106	-0.1857	-0.005493	0.012665
23.854	0.004883	0.19714	0.002136	-0.00412	0.000305	-0.021667	-0.43182	-0.007172	0.023651	0.023193	0.029602	-0.00946	-0.035553	0.14679	0.12711	-0.005035	0.058289	0.26352	-0.58426	0.24094	-0.063934	-0.027618	-0.042877	-0.21576	0.084381	0.019379	0.088043	0.1889	0.09552	-0.10788	-0.006104	0.005188
23.855	0.007629	0.22369	0.033112	0.005493	0.00351	-0.02121	-0.34363	-0.012054	0.008698	0.027161	-0.19058	-0.008087	0.039063	0.1004	0.15091	-0.005341	0.073547	0.36163	-0.40802	0.094604	-0.26001	0.004272	-0.059357	-0.17914	0.098419	0.034332	0.020752	0.057373	0.18524	0.14557	-0.000153	0.006561
23.856	0.006409	0.23621	0.011749	-0.004578	0.006104	-0.024109	-0.31784	-0.00946	0.015106	0.036774	-0.057068	-0.011749	-0.026398	0.080261	-0.1442	0.006561	0.062561	0.27985	0.023499	0.084534	-0.38391	0.098724	-0.063324	-0.065155	0.054932	0.040436	-0.13977	0.02533	0.77179	0.034485	-0.002289	0.01297
23.857	0.002136	0.25528	-0.013733	0.005798	0.00351	-0.0354	-0.31464	-0.002289	0.013123	0.059662	-0.015259	-0.009613	-0.065308	0.059814	0.076447	-0.002594	0.035706	0.09552	0.18524	0.037231	-0.046844	0.08194	-0.010529	-0.005341	0.008698	0.045319	-0.060272	0.016022	0.25009	0.070953	-0.000916	0.015259
23.858	0.009155	0.28046	-0.003052	-0.001984	0.001373	-0.03067	-0.22079	-0.007629	0.019989	0.056	-0.005646	-0.01236	-0.03418	0.067444	-0.11643	-0.019073	-0.011444	-0.005035	0.30411	-0.023193	0.36926	0.07309	-0.025177	-0.013123	-0.046997	0.026398	-0.018311	0.003357	-0.29694	0.18646	-0.00412	0.021515
23.859	0.009613	0.28748	0.005493	0.00946	0.00824	-0.036011	-0.050964	-0.000763	0.013123	0.039063	-0.002441	-0.010986	-0.005341	0.088806	-0.050659	-0.007935	-0.037994	-0.038757	-0.048065	-0.049438	0.2124	0.20889	-0.027466	-0.038605	-0.085449	0.007324	0.04715	0.005646	-0.17014	0.14664	-0.003815	0.025635
23.86	0.009308	0.30045	0.002136	-0.004578	0.006714	-0.041046	0.017395	-0.004425	-0.018311	0.05249	-0.04425	-0.007019	0.017853	0.082855	-0.27161	-0.021667	-0.045471	-0.16373	-0.64682	-0.049438	-0.11734	0.17532	-0.023956	-0.020142	-0.05722	0.014191	0.087738	-0.007935	-0.36011	-0.010071	-0.007782	0.024261
23.861	0.016937	0.30289	0.014954	0.000763	0.002747	-0.035095	0.022888	-0.009613	-0.008545	0.071106	-0.022125	-0.004578	-0.016785	0.10208	-0.1294	-0.010681	-0.038452	-0.29343	-1.0867	-0.027466	-0.28137	0.011902	0.035248	0.000916	-0.018921	0.031433	0.12802	-0.050812	-0.74173	-0.089569	-0.003357	0.028687
23.862	0.007782	0.36728	0.006256	-0.019989	0.000305	-0.063324	0.016785	-0.00473	-0.037689	0.058289	0.084839	-0.011139	-0.03479	0.12466	0.33936	0.001068	-0.029144	-0.36835	-1.2779	-0.035706	-0.18799	-0.2243	0.029144	0.073547	0.019836	0.041504	0.13733	-0.040283	-0.19745	0.00351	-0.00412	0.028992
23.863	0.000305	0.42679	0.001831	-0.014343	0.003967	-0.056	0.064087	-0.003662	-0.032806	0.045929	0.14313	-0.012207	-0.041809	0.14328	0.015869	-0.000153	0.013733	-0.48614	-1.1696	0.000305	0.17395	-0.32242	-0.006866	0.028839	0.026703	0.044403	0.10605	0.039825	0.42007	-0.13199	-0.004425	0.02594
23.864	0.012054	0.3981	-0.001221	0.000458	-0.002441	-0.058746	0.081787	-0.013733	-0.036621	0.058899	0.12741	0.000458	-0.035095	0.13504	-0.32181	-0.010223	0.057068	-0.44723	-1.1096	-0.010376	0.17639	-0.24872	0.024872	-0.091705	0.015106	0.031433	0.01236	0.044098	0.26276	-0.16525	-0.000916	0.025787
23.865	0.014648	0.46936	-0.021057	0.015106	0.00473	-0.054932	0.066528	-0.008698	-0.028381	0.046844	-0.052032	-0.011444	0.023346	0.10376	-0.26245	-0.001678	0.07843	-0.27939	-0.80856	-0.011292	-0.354	-0.48172	0.055847	-0.19455	-0.022125	0.033417	-0.10544	0.000458	0.26093	-0.17212	0.000153	0.016022
23.866	0.018158	0.46661	0.013733	-0.005646	0.006104	-0.063019	0.014038	-0.006409	-0.024414	0.038605	-0.25513	-0.006104	0.082855	0.087891	-0.2417	-0.005646	0.12466	-0.11765	-0.79178	-0.006561	-0.69992	-0.44937	0.039825	-0.28488	-0.050049	-0.048523	-0.16571	-0.017242	0.18707	-0.05249	-0.00061	0.021667
23.867	0.013275	0.5368	0.003204	0.007629	0.001526	-0.054016	0.070343	0.000916	-0.021667	0.045776	-0.20889	-0.005188	0.046234	0.038452	-0.10437	-0.00946	0.083618	-0.17685	-0.58151	-0.000305	-0.22781	-0.28412	0.094452	-0.13504	-0.046387	-0.20935	-0.21927	-0.013733	0.37415	-0.029449	-0.002441	0.02655
23.868	0.019073	0.57922	-0.011292	0.00061	0.005646	-0.056305	0.20844	-0.003662	-0.005341	0.061798	-0.066528	-0.004425	0.027161	0.053864	0.020447	-0.001678	0.013733	-0.075531	-0.31372	0.020599	0.28686	0.036163	0.02655	0.076599	-0.037537	-0.21439	-0.2005	-0.039215	0.34759	-0.098114	-0.00412	0.01297
23.869	0.018921	0.58746	-0.007629	0.029144	0.003204	-0.06424	0.21729	-0.014648	-0.005188	0.055695	0.10864	-0.004425	0.003815	0.055237	0.26352	-0.014343	-0.013733	-0.041656	-0.41	-0.020752	0.24841	0.25711	0.045624	0.093079	-0.051117	-0.17334	-0.079346	-0.044403	-0.058594	-0.25207	-0.004578	0.00946
23.87	0.016937	0.59067	-0.020599	0.032806	0.003815	-0.06546	0.1506	-0.020294	-0.011139	0.026703	0.10208	-0.015717	-0.014343	0.070953	0.31021	-0.002594	-0.023499	0.064697	-0.57251	-0.021515	0.071869	0.36835	0.093842	0.055237	-0.093994	-0.21622	0.13886	0.037994	-0.23972	-0.21851	-0.001984	0.005341
23.871	0.016022	0.59769	-0.006409	-0.016479	0.000305	-0.072784	0.1622	-0.011444	-0.016174	0.027008	0.039673	0.005493	-0.014648	0.11032	0.21378	-0.000153	-0.055084	0.025482	-0.094452	-0.00946	-0.002594	0.62149	0.13412	-0.036926	-0.12589	-0.17242	0.28412	0.00351	0.25223	-0.12619	-0.003815	0.00885
23.872	0.010986	0.57907	-0.042267	-0.020142	0.010071	-0.061798	0.15854	-0.00351	-0.021973	0.019379	-0.009766	-0.007019	-0.003204	0.15137	0.16922	-0.000305	-0.061951	-0.059967	-0.45654	0.010071	0.085602	0.62241	0.065918	-0.063019	-0.12955	0.056915	0.21164	-0.074158	0.31708	0.14191	-0.003662	0.006409
23.873	0.013885	0.5513	-0.069885	-0.029602	0.00473	-0.045319	0.18539	0.003204	-0.047455	0.002136	-0.041962	-0.001221	0.018005	0.1947	0.15656	0.016479	-0.05127	0.007172	-0.24033	-0.001678	0.20798	0.43839	0.004578	-0.06012	-0.098572	0.15564	0.13031	-0.43274	-0.33554	0.18478	-0.005188	0.00061
23.874	0.00885	0.53757	-0.0737	0.005493	-0.002747	-0.029907	0.20294	0.007477	-0.06546	-0.019379	-0.16876	-0.008392	0.068817	0.23773	-0.087585	0.015717	-0.023041	0.02243	-0.14908	-0.038757	0.12573	0.36148	-0.032196	-0.036469	-0.069733	0.13901	0.031281	-0.2948	-0.38956	-0.36209	0.003662	-0.006104
23.875	0.001373	0.52261	-0.070801	0.009003	-0.001678	-0.031738	0.26855	0.004425	-0.088501	-0.019684	-0.12482	-0.000916	0.045929	0.15198	-0.112	0.018463	-0.011597	0.012054	0.082703	-0.059814	-0.05722	0.041962	0.045776	-0.041046	-0.088959	0.05661	0.03006	0.44296	-0.37064	-0.69168	0.000458	-0.013885
23.876	0.003052	0.52033	-0.062714	0.056305	0.005951	-0.007935	0.31021	0.006866	-0.11002	0.010986	0.079346	0.001526	-0.008087	0.084991	-0.12512	0.003204	0.017548	0.11139	-0.16083	-0.112	0.1831	-0.17227	0.072021	-0.071259	-0.053406	0.12238	0.040588	0.36468	-0.15793	-0.97931	-0.002899	-0.011292
23.877	0.007782	0.55878	-0.030212	0.036926	-0.000153	-0.00412	0.29236	0.006714	-0.11093	0	0.009155	-0.002747	0.027466	0.019073	-0.16464	0.016479	0.059967	0.18799	-0.17349	-0.095215	0.19959	-0.49454	0.15488	-0.13275	-0.073395	0.1294	0.041351	0.032043	0.1033	-0.3154	-0.002441	-0.004883
23.878	0.007477	0.54001	0.006866	-0.005035	-0.017548	-0.010376	0.29541	0.005035	-0.10437	-0.011444	-0.047913	-0.005341	0.059357	-0.071106	-0.39063	0.007935	0.083313	0.25085	0.024261	-0.083466	-0.13214	-0.34668	0.11932	-0.17227	-0.077667	0.050812	0.048065	0.078278	-0.085907	0.61081	0.007629	0.009613
23.879	0.011444	0.50781	-0.013275	-0.01709	0.011292	-0.005646	0.27649	0.006409	-0.12863	-0.011902	-0.041656	-0.001831	0.074158	-0.067902	-0.30548	0.00473	0.025635	0.20569	0.25269	0.012512	-0.44601	0.082245	-0.007172	-0.032654	0.015259	0.061951	0.11429	0.10101	-0.020599	0.82199	-0.001526	0.012665
